<mxfile host="app.diagrams.net" modified="2024-03-05T17:56:57.873Z" agent="Mozilla/5.0 (Windows NT 10.0; Win64; x64) AppleWebKit/537.36 (KHTML, like Gecko) Chrome/122.0.0.0 Safari/537.36" etag="O4YEK7ihqsQf8QntdtlM" version="23.1.6" type="device">
  <diagram name="Page-1" id="IsIwURZ9HM_jDeHbUqgr">
    <mxGraphModel dx="1877" dy="1733" grid="1" gridSize="10" guides="1" tooltips="1" connect="1" arrows="1" fold="1" page="1" pageScale="1" pageWidth="827" pageHeight="1169" math="0" shadow="1">
      <root>
        <mxCell id="0" />
        <mxCell id="1" parent="0" />
        <mxCell id="yI5xxinmUdv7EpqgZZJL-162" value="" style="rounded=1;whiteSpace=wrap;html=1;shadow=1;dashed=1;dashPattern=8 8;fontStyle=1;fontSize=26;" parent="1" vertex="1">
          <mxGeometry x="2360" y="360" width="1070" height="650" as="geometry" />
        </mxCell>
        <mxCell id="yI5xxinmUdv7EpqgZZJL-163" style="edgeStyle=orthogonalEdgeStyle;rounded=0;orthogonalLoop=1;jettySize=auto;html=1;exitX=0.5;exitY=1;exitDx=0;exitDy=0;entryX=0.5;entryY=0;entryDx=0;entryDy=0;startArrow=classic;startFill=1;fontStyle=1;fontSize=26;" parent="1" source="yI5xxinmUdv7EpqgZZJL-124" target="yI5xxinmUdv7EpqgZZJL-162" edge="1">
          <mxGeometry relative="1" as="geometry" />
        </mxCell>
        <mxCell id="yI5xxinmUdv7EpqgZZJL-124" value="" style="rounded=1;whiteSpace=wrap;html=1;shadow=1;dashed=1;dashPattern=8 8;fontStyle=1;fontSize=26;" parent="1" vertex="1">
          <mxGeometry x="1150" y="100" width="1070" height="1170" as="geometry" />
        </mxCell>
        <mxCell id="yI5xxinmUdv7EpqgZZJL-140" value="" style="rounded=1;whiteSpace=wrap;html=1;shadow=1;glass=0;dashed=1;fontStyle=1;fontSize=26;" parent="1" vertex="1">
          <mxGeometry x="1235" y="890" width="900" height="280" as="geometry" />
        </mxCell>
        <mxCell id="yI5xxinmUdv7EpqgZZJL-139" value="" style="rounded=1;whiteSpace=wrap;html=1;shadow=1;glass=0;dashed=1;fontStyle=1;fontSize=26;" parent="1" vertex="1">
          <mxGeometry x="1230" y="580" width="900" height="280" as="geometry" />
        </mxCell>
        <mxCell id="yI5xxinmUdv7EpqgZZJL-138" value="" style="rounded=1;whiteSpace=wrap;html=1;shadow=1;glass=0;dashed=1;fontStyle=1;fontSize=26;" parent="1" vertex="1">
          <mxGeometry x="1235" y="200" width="900" height="360" as="geometry" />
        </mxCell>
        <mxCell id="yI5xxinmUdv7EpqgZZJL-136" style="edgeStyle=orthogonalEdgeStyle;rounded=0;orthogonalLoop=1;jettySize=auto;html=1;exitX=0.5;exitY=1;exitDx=0;exitDy=0;entryX=0.5;entryY=0;entryDx=0;entryDy=0;fontStyle=1;fontSize=26;" parent="1" source="yI5xxinmUdv7EpqgZZJL-99" target="yI5xxinmUdv7EpqgZZJL-124" edge="1">
          <mxGeometry relative="1" as="geometry" />
        </mxCell>
        <mxCell id="yI5xxinmUdv7EpqgZZJL-99" value="" style="rounded=1;whiteSpace=wrap;html=1;shadow=1;dashed=1;dashPattern=8 8;fontStyle=1;fontSize=26;" parent="1" vertex="1">
          <mxGeometry x="-75" y="830" width="1070" height="232.5" as="geometry" />
        </mxCell>
        <mxCell id="yI5xxinmUdv7EpqgZZJL-135" style="edgeStyle=orthogonalEdgeStyle;rounded=0;orthogonalLoop=1;jettySize=auto;html=1;exitX=0.5;exitY=1;exitDx=0;exitDy=0;entryX=0.5;entryY=0;entryDx=0;entryDy=0;fontStyle=1;fontSize=26;" parent="1" source="yI5xxinmUdv7EpqgZZJL-97" target="yI5xxinmUdv7EpqgZZJL-99" edge="1">
          <mxGeometry relative="1" as="geometry" />
        </mxCell>
        <mxCell id="yI5xxinmUdv7EpqgZZJL-97" value="" style="rounded=1;whiteSpace=wrap;html=1;shadow=1;dashed=1;dashPattern=8 8;fontStyle=1;fontSize=26;" parent="1" vertex="1">
          <mxGeometry x="-75" y="350" width="1070" height="335" as="geometry" />
        </mxCell>
        <mxCell id="yI5xxinmUdv7EpqgZZJL-87" style="edgeStyle=elbowEdgeStyle;rounded=0;orthogonalLoop=1;jettySize=auto;html=1;exitX=0;exitY=1;exitDx=0;exitDy=0;entryX=0;entryY=0.5;entryDx=0;entryDy=0;fontStyle=1;fontSize=26;" parent="1" source="yI5xxinmUdv7EpqgZZJL-27" target="yI5xxinmUdv7EpqgZZJL-31" edge="1">
          <mxGeometry relative="1" as="geometry" />
        </mxCell>
        <mxCell id="yI5xxinmUdv7EpqgZZJL-131" style="edgeStyle=orthogonalEdgeStyle;rounded=0;orthogonalLoop=1;jettySize=auto;html=1;exitX=1;exitY=0.5;exitDx=0;exitDy=0;fontStyle=1;fontSize=26;" parent="1" source="yI5xxinmUdv7EpqgZZJL-27" target="yI5xxinmUdv7EpqgZZJL-28" edge="1">
          <mxGeometry relative="1" as="geometry" />
        </mxCell>
        <mxCell id="yI5xxinmUdv7EpqgZZJL-27" value="&lt;div style=&quot;border-color: var(--border-color); font-size: 26px;&quot;&gt;Data&lt;/div&gt;&lt;div style=&quot;border-color: var(--border-color); font-size: 26px;&quot;&gt;Transformation&lt;/div&gt;" style="rounded=0;whiteSpace=wrap;html=1;fontSize=26;fontStyle=1" parent="1" vertex="1">
          <mxGeometry x="30" y="450" width="170" height="60" as="geometry" />
        </mxCell>
        <mxCell id="yI5xxinmUdv7EpqgZZJL-132" style="edgeStyle=orthogonalEdgeStyle;rounded=0;orthogonalLoop=1;jettySize=auto;html=1;exitX=1;exitY=0.5;exitDx=0;exitDy=0;entryX=0;entryY=0.5;entryDx=0;entryDy=0;fontStyle=1;fontSize=26;" parent="1" source="yI5xxinmUdv7EpqgZZJL-28" target="yI5xxinmUdv7EpqgZZJL-29" edge="1">
          <mxGeometry relative="1" as="geometry" />
        </mxCell>
        <mxCell id="yI5xxinmUdv7EpqgZZJL-28" value="&lt;div style=&quot;border-color: var(--border-color); font-size: 26px;&quot;&gt;Data&lt;/div&gt;&lt;div style=&quot;border-color: var(--border-color); font-size: 26px;&quot;&gt;Imputation&lt;/div&gt;" style="rounded=0;whiteSpace=wrap;html=1;fontSize=26;fontStyle=1" parent="1" vertex="1">
          <mxGeometry x="255" y="450" width="180" height="60" as="geometry" />
        </mxCell>
        <mxCell id="yI5xxinmUdv7EpqgZZJL-133" style="edgeStyle=orthogonalEdgeStyle;rounded=0;orthogonalLoop=1;jettySize=auto;html=1;exitX=1;exitY=0.5;exitDx=0;exitDy=0;fontStyle=1;fontSize=26;" parent="1" source="yI5xxinmUdv7EpqgZZJL-29" target="yI5xxinmUdv7EpqgZZJL-30" edge="1">
          <mxGeometry relative="1" as="geometry" />
        </mxCell>
        <mxCell id="yI5xxinmUdv7EpqgZZJL-29" value="Data Balancing" style="rounded=0;whiteSpace=wrap;html=1;fontSize=26;fontStyle=1" parent="1" vertex="1">
          <mxGeometry x="481.5" y="450" width="170" height="60" as="geometry" />
        </mxCell>
        <mxCell id="yI5xxinmUdv7EpqgZZJL-30" value="Data Normalization" style="rounded=0;whiteSpace=wrap;html=1;fontSize=26;fontStyle=1" parent="1" vertex="1">
          <mxGeometry x="681.5" y="450" width="160" height="60" as="geometry" />
        </mxCell>
        <mxCell id="yI5xxinmUdv7EpqgZZJL-31" value="&lt;div style=&quot;border-color: var(--border-color); font-size: 26px;&quot;&gt;Data Discretization&lt;/div&gt;" style="rounded=1;whiteSpace=wrap;html=1;glass=0;shadow=0;dashed=1;dashPattern=8 8;fontSize=26;fontStyle=1" parent="1" vertex="1">
          <mxGeometry x="60" y="560" width="170" height="40" as="geometry" />
        </mxCell>
        <mxCell id="yI5xxinmUdv7EpqgZZJL-81" style="edgeStyle=elbowEdgeStyle;rounded=0;orthogonalLoop=1;jettySize=auto;html=1;entryX=0;entryY=1;entryDx=0;entryDy=0;endArrow=none;endFill=0;startArrow=classic;startFill=1;fontStyle=1;fontSize=26;" parent="1" source="yI5xxinmUdv7EpqgZZJL-33" target="yI5xxinmUdv7EpqgZZJL-28" edge="1">
          <mxGeometry relative="1" as="geometry" />
        </mxCell>
        <mxCell id="yI5xxinmUdv7EpqgZZJL-33" value="&lt;div style=&quot;border-color: var(--border-color); font-size: 26px;&quot;&gt;Zeros/Mean/Median&lt;/div&gt;" style="rounded=1;whiteSpace=wrap;html=1;dashed=1;dashPattern=8 8;fontSize=26;fontStyle=1" parent="1" vertex="1">
          <mxGeometry x="300" y="540" width="170" height="30" as="geometry" />
        </mxCell>
        <mxCell id="yI5xxinmUdv7EpqgZZJL-82" style="edgeStyle=elbowEdgeStyle;rounded=0;orthogonalLoop=1;jettySize=auto;html=1;entryX=0;entryY=1;entryDx=0;entryDy=0;endArrow=none;endFill=0;startArrow=classic;startFill=1;fontStyle=1;fontSize=26;" parent="1" source="yI5xxinmUdv7EpqgZZJL-35" target="yI5xxinmUdv7EpqgZZJL-28" edge="1">
          <mxGeometry relative="1" as="geometry" />
        </mxCell>
        <mxCell id="yI5xxinmUdv7EpqgZZJL-35" value="&lt;div style=&quot;border-color: var(--border-color); font-size: 26px;&quot;&gt;Time-Series Methods&lt;/div&gt;" style="rounded=1;whiteSpace=wrap;html=1;dashed=1;dashPattern=8 8;fontSize=26;fontStyle=1" parent="1" vertex="1">
          <mxGeometry x="300" y="597.5" width="160" height="45" as="geometry" />
        </mxCell>
        <mxCell id="yI5xxinmUdv7EpqgZZJL-83" style="edgeStyle=elbowEdgeStyle;rounded=0;orthogonalLoop=1;jettySize=auto;html=1;exitX=0;exitY=0.5;exitDx=0;exitDy=0;entryX=0;entryY=1;entryDx=0;entryDy=0;endArrow=none;endFill=0;startArrow=classic;startFill=1;fontStyle=1;fontSize=26;" parent="1" source="yI5xxinmUdv7EpqgZZJL-37" target="yI5xxinmUdv7EpqgZZJL-29" edge="1">
          <mxGeometry relative="1" as="geometry" />
        </mxCell>
        <mxCell id="yI5xxinmUdv7EpqgZZJL-37" value="Under-Sampling" style="rounded=1;whiteSpace=wrap;html=1;dashed=1;dashPattern=8 8;fontSize=26;fontStyle=1" parent="1" vertex="1">
          <mxGeometry x="511.5" y="530" width="168.5" height="30" as="geometry" />
        </mxCell>
        <mxCell id="yI5xxinmUdv7EpqgZZJL-84" style="edgeStyle=elbowEdgeStyle;rounded=0;orthogonalLoop=1;jettySize=auto;html=1;exitX=0;exitY=0.5;exitDx=0;exitDy=0;endArrow=none;endFill=0;startArrow=classic;startFill=1;fontStyle=1;fontSize=26;" parent="1" source="yI5xxinmUdv7EpqgZZJL-39" edge="1">
          <mxGeometry relative="1" as="geometry">
            <mxPoint x="480" y="510" as="targetPoint" />
          </mxGeometry>
        </mxCell>
        <mxCell id="yI5xxinmUdv7EpqgZZJL-39" value="Over-sampling: SMOTE" style="rounded=1;whiteSpace=wrap;html=1;dashed=1;dashPattern=8 8;fontSize=26;fontStyle=1" parent="1" vertex="1">
          <mxGeometry x="511.5" y="610" width="168.5" height="45" as="geometry" />
        </mxCell>
        <mxCell id="yI5xxinmUdv7EpqgZZJL-85" style="edgeStyle=elbowEdgeStyle;rounded=0;orthogonalLoop=1;jettySize=auto;html=1;entryX=0;entryY=1;entryDx=0;entryDy=0;endArrow=none;endFill=0;startArrow=classic;startFill=1;fontStyle=1;fontSize=26;" parent="1" source="yI5xxinmUdv7EpqgZZJL-41" target="yI5xxinmUdv7EpqgZZJL-30" edge="1">
          <mxGeometry relative="1" as="geometry" />
        </mxCell>
        <mxCell id="yI5xxinmUdv7EpqgZZJL-41" value="Z-Score normalization" style="rounded=1;whiteSpace=wrap;html=1;dashed=1;dashPattern=8 8;fontSize=26;fontStyle=1" parent="1" vertex="1">
          <mxGeometry x="721.5" y="530" width="208.5" height="40" as="geometry" />
        </mxCell>
        <mxCell id="yI5xxinmUdv7EpqgZZJL-86" style="edgeStyle=elbowEdgeStyle;rounded=0;orthogonalLoop=1;jettySize=auto;html=1;entryX=0;entryY=1;entryDx=0;entryDy=0;endArrow=none;endFill=0;startArrow=classic;startFill=1;fontStyle=1;fontSize=26;" parent="1" source="yI5xxinmUdv7EpqgZZJL-43" target="yI5xxinmUdv7EpqgZZJL-30" edge="1">
          <mxGeometry relative="1" as="geometry" />
        </mxCell>
        <mxCell id="yI5xxinmUdv7EpqgZZJL-43" value="Min-Max normalization" style="rounded=1;whiteSpace=wrap;html=1;dashed=1;dashPattern=8 8;fontSize=26;fontStyle=1" parent="1" vertex="1">
          <mxGeometry x="723.5" y="600" width="206.5" height="40" as="geometry" />
        </mxCell>
        <mxCell id="yI5xxinmUdv7EpqgZZJL-129" style="edgeStyle=orthogonalEdgeStyle;rounded=0;orthogonalLoop=1;jettySize=auto;html=1;exitX=1;exitY=0.5;exitDx=0;exitDy=0;endArrow=none;endFill=0;fontStyle=1;fontSize=26;" parent="1" source="yI5xxinmUdv7EpqgZZJL-50" target="yI5xxinmUdv7EpqgZZJL-51" edge="1">
          <mxGeometry relative="1" as="geometry" />
        </mxCell>
        <mxCell id="yI5xxinmUdv7EpqgZZJL-50" value="&lt;div style=&quot;font-size: 26px;&quot;&gt;Feature&lt;/div&gt;&lt;div style=&quot;font-size: 26px;&quot;&gt;Generation&lt;/div&gt;" style="rounded=0;whiteSpace=wrap;html=1;fontSize=26;fontStyle=1" parent="1" vertex="1">
          <mxGeometry x="135" y="945" width="120" height="60" as="geometry" />
        </mxCell>
        <mxCell id="yI5xxinmUdv7EpqgZZJL-130" style="edgeStyle=orthogonalEdgeStyle;rounded=0;orthogonalLoop=1;jettySize=auto;html=1;exitX=1;exitY=0.5;exitDx=0;exitDy=0;entryX=0;entryY=0.5;entryDx=0;entryDy=0;endArrow=none;endFill=0;fontStyle=1;fontSize=26;" parent="1" source="yI5xxinmUdv7EpqgZZJL-51" target="yI5xxinmUdv7EpqgZZJL-52" edge="1">
          <mxGeometry relative="1" as="geometry" />
        </mxCell>
        <mxCell id="yI5xxinmUdv7EpqgZZJL-51" value="&lt;div style=&quot;font-size: 26px;&quot;&gt;Feature&lt;/div&gt;&lt;div style=&quot;font-size: 26px;&quot;&gt;Selection&lt;/div&gt;" style="rounded=0;whiteSpace=wrap;html=1;fontSize=26;fontStyle=1" parent="1" vertex="1">
          <mxGeometry x="395" y="945" width="120" height="60" as="geometry" />
        </mxCell>
        <mxCell id="yI5xxinmUdv7EpqgZZJL-52" value="&lt;div style=&quot;font-size: 26px;&quot;&gt;Feature&lt;/div&gt;&lt;div style=&quot;font-size: 26px;&quot;&gt;Extraction&lt;/div&gt;" style="whiteSpace=wrap;html=1;fontSize=26;fontStyle=1" parent="1" vertex="1">
          <mxGeometry x="656.5" y="945" width="120" height="60" as="geometry" />
        </mxCell>
        <mxCell id="yI5xxinmUdv7EpqgZZJL-53" value="&lt;div style=&quot;font-size: 26px;&quot;&gt;Traditional&lt;/div&gt;&lt;div style=&quot;font-size: 26px;&quot;&gt;ML Models&lt;/div&gt;" style="whiteSpace=wrap;html=1;fontSize=26;fontStyle=1" parent="1" vertex="1">
          <mxGeometry x="1295" y="360" width="220" height="60" as="geometry" />
        </mxCell>
        <mxCell id="yI5xxinmUdv7EpqgZZJL-54" value="Deep Learning Algorithms" style="whiteSpace=wrap;html=1;fontSize=26;fontStyle=1" parent="1" vertex="1">
          <mxGeometry x="1295" y="675" width="260" height="60" as="geometry" />
        </mxCell>
        <mxCell id="yI5xxinmUdv7EpqgZZJL-105" style="edgeStyle=orthogonalEdgeStyle;rounded=0;orthogonalLoop=1;jettySize=auto;html=1;entryX=1;entryY=0.5;entryDx=0;entryDy=0;fontStyle=1;fontSize=26;" parent="1" source="yI5xxinmUdv7EpqgZZJL-55" target="yI5xxinmUdv7EpqgZZJL-53" edge="1">
          <mxGeometry relative="1" as="geometry" />
        </mxCell>
        <mxCell id="yI5xxinmUdv7EpqgZZJL-55" value="Random forest (RF)" style="whiteSpace=wrap;html=1;fontSize=26;rounded=1;dashed=1;dashPattern=8 8;fontStyle=1" parent="1" vertex="1">
          <mxGeometry x="1760" y="225" width="215" height="78" as="geometry" />
        </mxCell>
        <mxCell id="yI5xxinmUdv7EpqgZZJL-108" style="edgeStyle=orthogonalEdgeStyle;rounded=0;orthogonalLoop=1;jettySize=auto;html=1;exitX=0;exitY=0.5;exitDx=0;exitDy=0;entryX=1;entryY=0.5;entryDx=0;entryDy=0;fontStyle=1;fontSize=26;" parent="1" source="yI5xxinmUdv7EpqgZZJL-59" target="yI5xxinmUdv7EpqgZZJL-53" edge="1">
          <mxGeometry relative="1" as="geometry" />
        </mxCell>
        <mxCell id="yI5xxinmUdv7EpqgZZJL-59" value="LightGBM" style="whiteSpace=wrap;html=1;fontSize=26;rounded=1;dashed=1;dashPattern=8 8;fontStyle=1" parent="1" vertex="1">
          <mxGeometry x="1759" y="355" width="216" height="70" as="geometry" />
        </mxCell>
        <mxCell id="yI5xxinmUdv7EpqgZZJL-107" style="edgeStyle=orthogonalEdgeStyle;rounded=0;orthogonalLoop=1;jettySize=auto;html=1;exitX=0;exitY=0.5;exitDx=0;exitDy=0;entryX=1;entryY=0.5;entryDx=0;entryDy=0;fontStyle=1;fontSize=26;" parent="1" source="yI5xxinmUdv7EpqgZZJL-62" target="yI5xxinmUdv7EpqgZZJL-53" edge="1">
          <mxGeometry relative="1" as="geometry" />
        </mxCell>
        <mxCell id="yI5xxinmUdv7EpqgZZJL-62" value="Naive Bayes (NB)" style="whiteSpace=wrap;html=1;fontSize=26;rounded=1;dashed=1;dashPattern=8 8;fontStyle=1" parent="1" vertex="1">
          <mxGeometry x="1761" y="465" width="214" height="70" as="geometry" />
        </mxCell>
        <mxCell id="yI5xxinmUdv7EpqgZZJL-109" style="edgeStyle=orthogonalEdgeStyle;rounded=0;orthogonalLoop=1;jettySize=auto;html=1;exitX=0;exitY=0.5;exitDx=0;exitDy=0;entryX=1;entryY=0.5;entryDx=0;entryDy=0;fontStyle=1;fontSize=26;" parent="1" source="yI5xxinmUdv7EpqgZZJL-64" target="yI5xxinmUdv7EpqgZZJL-54" edge="1">
          <mxGeometry relative="1" as="geometry" />
        </mxCell>
        <mxCell id="yI5xxinmUdv7EpqgZZJL-64" value="K-nearest neighbor (KNN)" style="whiteSpace=wrap;html=1;fontSize=26;rounded=1;dashed=1;dashPattern=8 8;fontStyle=1" parent="1" vertex="1">
          <mxGeometry x="1725" y="605" width="285" height="90" as="geometry" />
        </mxCell>
        <mxCell id="yI5xxinmUdv7EpqgZZJL-110" style="edgeStyle=orthogonalEdgeStyle;rounded=0;orthogonalLoop=1;jettySize=auto;html=1;exitX=0;exitY=0.5;exitDx=0;exitDy=0;entryX=1;entryY=0.5;entryDx=0;entryDy=0;fontStyle=1;fontSize=26;" parent="1" source="yI5xxinmUdv7EpqgZZJL-65" target="yI5xxinmUdv7EpqgZZJL-54" edge="1">
          <mxGeometry relative="1" as="geometry" />
        </mxCell>
        <mxCell id="yI5xxinmUdv7EpqgZZJL-65" value="Artificial Neural Networks (ANN)" style="whiteSpace=wrap;html=1;fontSize=26;rounded=1;dashed=1;dashPattern=8 8;fontStyle=1" parent="1" vertex="1">
          <mxGeometry x="1725" y="725" width="275" height="90" as="geometry" />
        </mxCell>
        <mxCell id="yI5xxinmUdv7EpqgZZJL-66" value="&lt;div style=&quot;font-size: 26px;&quot;&gt;AutoML Algorithms&lt;/div&gt;" style="whiteSpace=wrap;html=1;fontSize=26;fontStyle=1" parent="1" vertex="1">
          <mxGeometry x="1304" y="987.5" width="243.5" height="60" as="geometry" />
        </mxCell>
        <mxCell id="yI5xxinmUdv7EpqgZZJL-111" style="edgeStyle=orthogonalEdgeStyle;rounded=0;orthogonalLoop=1;jettySize=auto;html=1;entryX=1;entryY=0.5;entryDx=0;entryDy=0;fontStyle=1;fontSize=26;" parent="1" source="yI5xxinmUdv7EpqgZZJL-68" target="yI5xxinmUdv7EpqgZZJL-66" edge="1">
          <mxGeometry relative="1" as="geometry" />
        </mxCell>
        <mxCell id="yI5xxinmUdv7EpqgZZJL-68" value="Grid Search" style="whiteSpace=wrap;html=1;fontSize=26;rounded=1;dashed=1;dashPattern=8 8;fontStyle=1" parent="1" vertex="1">
          <mxGeometry x="1742" y="920" width="230" height="85" as="geometry" />
        </mxCell>
        <mxCell id="yI5xxinmUdv7EpqgZZJL-113" style="edgeStyle=orthogonalEdgeStyle;rounded=0;orthogonalLoop=1;jettySize=auto;html=1;exitX=0;exitY=0.5;exitDx=0;exitDy=0;entryX=1;entryY=0.5;entryDx=0;entryDy=0;fontStyle=1;fontSize=26;" parent="1" source="yI5xxinmUdv7EpqgZZJL-70" target="yI5xxinmUdv7EpqgZZJL-66" edge="1">
          <mxGeometry relative="1" as="geometry" />
        </mxCell>
        <mxCell id="yI5xxinmUdv7EpqgZZJL-70" value="Bayesian Optimization" style="whiteSpace=wrap;html=1;fontSize=26;rounded=1;dashed=1;dashPattern=8 8;fontStyle=1" parent="1" vertex="1">
          <mxGeometry x="1742" y="1039" width="230" height="76" as="geometry" />
        </mxCell>
        <mxCell id="yI5xxinmUdv7EpqgZZJL-100" value="" style="sketch=0;outlineConnect=0;fontColor=#232F3E;gradientColor=none;fillColor=#8C4FFF;strokeColor=none;dashed=0;verticalLabelPosition=bottom;verticalAlign=top;align=center;html=1;fontSize=26;fontStyle=1;aspect=fixed;pointerEvents=1;shape=mxgraph.aws4.redshift_ml;" parent="1" vertex="1">
          <mxGeometry x="1366" y="435" width="78" height="78" as="geometry" />
        </mxCell>
        <mxCell id="yI5xxinmUdv7EpqgZZJL-101" value="" style="sketch=0;outlineConnect=0;fontColor=#232F3E;gradientColor=none;strokeColor=#ffffff;fillColor=#232F3E;dashed=0;verticalLabelPosition=middle;verticalAlign=bottom;align=center;html=1;whiteSpace=wrap;fontSize=26;fontStyle=1;spacing=3;shape=mxgraph.aws4.productIcon;prIcon=mxgraph.aws4.deep_learning_amis;" parent="1" vertex="1">
          <mxGeometry x="1394" y="750" width="80" height="110" as="geometry" />
        </mxCell>
        <mxCell id="yI5xxinmUdv7EpqgZZJL-102" value="AutoML" style="sketch=0;html=1;verticalAlign=top;labelPosition=center;verticalLabelPosition=bottom;align=center;spacingTop=-6;fontSize=26;fontStyle=1;fontColor=#999999;shape=image;aspect=fixed;imageAspect=0;image=data:image/svg+xml,PHN2ZyB4bWxucz0iaHR0cDovL3d3dy53My5vcmcvMjAwMC9zdmciIHhtbG5zOnY9Imh0dHBzOi8vdmVjdGEuaW8vbmFubyIgd2lkdGg9IjIwIiBoZWlnaHQ9IjE4IiB2aWV3Qm94PSIwIDAgMjAgMTgiPiYjeGE7CTxzdHlsZSB0eXBlPSJ0ZXh0L2NzcyI+JiN4YTsJLnN0MHtmaWxsOiM0Mjg1ZjQ7fSYjeGE7CS5zdDF7ZmlsbDojNjY5ZGY2O2ZpbGwtb3BhY2l0eTouOH0mI3hhOwkuc3Qye2ZpbGw6I2FlY2JmYTtmaWxsLW9wYWNpdHk6LjZ9JiN4YTsJPC9zdHlsZT4mI3hhOwk8cGF0aCBjbGFzcz0ic3QwIiBkPSJNOS4xNyA1LjE0bDEuNjYtMi41N0w5LjE1IDBINUwwIDguNThsMi41IDUuMTQgNS04LjU4eiIvPiYjeGE7CTxwYXRoIGNsYXNzPSJzdDEiIGQ9Ik0xNC4xNyA1LjE0bDEuNjYtMi41N0wxNC4xNyAwaC0zLjM0bDEuNjcgMi41Ny0xLjY3IDIuNTd6Ii8+JiN4YTsJPHBhdGggY2xhc3M9InN0MiIgZD0iTTEwLjgzIDEyLjg2bC0xLjY2IDIuNTdMMTAuODUgMThIMTVsNS04LjU4LTIuNS01LjE0LTUgOC41OHoiLz4mI3hhOwk8cGF0aCBjbGFzcz0ic3QxIiBkPSJNOS4xNyAxMi44Nkg1LjgzbC0xLjY2IDIuNTdMNS44MyAxOGgzLjM0TDcuNSAxNS40M3oiLz4mI3hhOzwvc3ZnPg==;" parent="1" vertex="1">
          <mxGeometry x="1379.92" y="1072.5" width="68.16" height="61.66" as="geometry" />
        </mxCell>
        <mxCell id="yI5xxinmUdv7EpqgZZJL-116" value="" style="image;aspect=fixed;perimeter=ellipsePerimeter;html=1;align=center;shadow=0;dashed=0;spacingTop=3;image=img/lib/active_directory/database_cube.svg;fontStyle=1;fontSize=26;" parent="1" vertex="1">
          <mxGeometry x="-90" y="110" width="105" height="116.67" as="geometry" />
        </mxCell>
        <mxCell id="yI5xxinmUdv7EpqgZZJL-127" style="edgeStyle=orthogonalEdgeStyle;rounded=0;orthogonalLoop=1;jettySize=auto;html=1;fontStyle=1;fontSize=26;" parent="1" source="yI5xxinmUdv7EpqgZZJL-117" edge="1">
          <mxGeometry relative="1" as="geometry">
            <mxPoint x="-80.00000000000045" y="545" as="targetPoint" />
          </mxGeometry>
        </mxCell>
        <mxCell id="yI5xxinmUdv7EpqgZZJL-117" value="" style="html=1;verticalLabelPosition=bottom;align=center;labelBackgroundColor=#ffffff;verticalAlign=top;strokeWidth=2;strokeColor=#0080F0;shadow=0;dashed=0;shape=mxgraph.ios7.icons.data;fontStyle=1;fontSize=26;" parent="1" vertex="1">
          <mxGeometry x="-380" y="470" width="140" height="150" as="geometry" />
        </mxCell>
        <mxCell id="yI5xxinmUdv7EpqgZZJL-119" value="" style="image;aspect=fixed;html=1;points=[];align=center;fontSize=26;image=img/lib/azure2/databases/Cache_Redis.svg;fontStyle=1" parent="1" vertex="1">
          <mxGeometry x="-200" y="170" width="147.69" height="120" as="geometry" />
        </mxCell>
        <mxCell id="yI5xxinmUdv7EpqgZZJL-122" value="&lt;font style=&quot;font-size: 26px;&quot;&gt;Automated Data Pre-Processing&lt;/font&gt;" style="text;html=1;align=center;verticalAlign=middle;resizable=0;points=[];autosize=1;strokeColor=none;fillColor=none;fontStyle=1;fontSize=26;" parent="1" vertex="1">
          <mxGeometry x="240" y="375" width="420" height="40" as="geometry" />
        </mxCell>
        <mxCell id="yI5xxinmUdv7EpqgZZJL-123" value="&lt;font style=&quot;font-size: 26px;&quot;&gt;&lt;span style=&quot;font-size: 26px;&quot;&gt;Automated Feature Engineering&lt;/span&gt;&lt;/font&gt;" style="text;html=1;align=center;verticalAlign=middle;resizable=0;points=[];autosize=1;strokeColor=none;fillColor=none;fontStyle=1;fontSize=26;" parent="1" vertex="1">
          <mxGeometry x="229" y="860" width="420" height="40" as="geometry" />
        </mxCell>
        <mxCell id="yI5xxinmUdv7EpqgZZJL-125" value="&lt;font style=&quot;font-size: 26px;&quot;&gt;&lt;span style=&quot;font-size: 26px;&quot;&gt;Automated Model Learning&lt;/span&gt;&lt;/font&gt;" style="text;html=1;align=center;verticalAlign=middle;resizable=0;points=[];autosize=1;strokeColor=none;fillColor=none;fontStyle=1;fontSize=26;" parent="1" vertex="1">
          <mxGeometry x="1489" y="120" width="360" height="40" as="geometry" />
        </mxCell>
        <mxCell id="yI5xxinmUdv7EpqgZZJL-126" value="Dataset" style="text;html=1;align=center;verticalAlign=middle;resizable=0;points=[];autosize=1;strokeColor=none;fillColor=none;fontSize=26;fontStyle=1" parent="1" vertex="1">
          <mxGeometry x="-370" y="630" width="120" height="40" as="geometry" />
        </mxCell>
        <mxCell id="yI5xxinmUdv7EpqgZZJL-137" style="edgeStyle=orthogonalEdgeStyle;rounded=0;orthogonalLoop=1;jettySize=auto;html=1;entryX=0.489;entryY=-0.014;entryDx=0;entryDy=0;entryPerimeter=0;fontStyle=1;fontSize=26;" parent="1" source="yI5xxinmUdv7EpqgZZJL-119" target="yI5xxinmUdv7EpqgZZJL-117" edge="1">
          <mxGeometry relative="1" as="geometry" />
        </mxCell>
        <mxCell id="yI5xxinmUdv7EpqgZZJL-141" value="Concept Drift Detection" style="whiteSpace=wrap;html=1;fontSize=26;fontStyle=1" parent="1" vertex="1">
          <mxGeometry x="2489" y="520" width="240" height="60" as="geometry" />
        </mxCell>
        <mxCell id="yI5xxinmUdv7EpqgZZJL-142" value="Concept Drift Adaptation" style="whiteSpace=wrap;html=1;fontSize=26;fontStyle=1" parent="1" vertex="1">
          <mxGeometry x="2537.25" y="785" width="240" height="70" as="geometry" />
        </mxCell>
        <mxCell id="yI5xxinmUdv7EpqgZZJL-156" style="edgeStyle=orthogonalEdgeStyle;rounded=0;orthogonalLoop=1;jettySize=auto;html=1;exitX=0;exitY=0.5;exitDx=0;exitDy=0;entryX=1;entryY=0.5;entryDx=0;entryDy=0;fontStyle=1;fontSize=26;" parent="1" source="yI5xxinmUdv7EpqgZZJL-143" target="yI5xxinmUdv7EpqgZZJL-141" edge="1">
          <mxGeometry relative="1" as="geometry" />
        </mxCell>
        <mxCell id="yI5xxinmUdv7EpqgZZJL-143" value="Performance-based Methods" style="whiteSpace=wrap;html=1;fontSize=26;fontStyle=1" parent="1" vertex="1">
          <mxGeometry x="2829" y="470" width="440" height="60" as="geometry" />
        </mxCell>
        <mxCell id="yI5xxinmUdv7EpqgZZJL-157" style="edgeStyle=orthogonalEdgeStyle;rounded=0;orthogonalLoop=1;jettySize=auto;html=1;exitX=0;exitY=0.5;exitDx=0;exitDy=0;entryX=1;entryY=0.5;entryDx=0;entryDy=0;fontStyle=1;fontSize=26;" parent="1" source="yI5xxinmUdv7EpqgZZJL-146" target="yI5xxinmUdv7EpqgZZJL-141" edge="1">
          <mxGeometry relative="1" as="geometry" />
        </mxCell>
        <mxCell id="yI5xxinmUdv7EpqgZZJL-146" value="Distribution-based Methods" style="whiteSpace=wrap;html=1;fontSize=26;fontStyle=1" parent="1" vertex="1">
          <mxGeometry x="2829" y="570" width="440" height="60" as="geometry" />
        </mxCell>
        <mxCell id="yI5xxinmUdv7EpqgZZJL-158" style="edgeStyle=orthogonalEdgeStyle;rounded=0;orthogonalLoop=1;jettySize=auto;html=1;exitX=0;exitY=0.5;exitDx=0;exitDy=0;entryX=1;entryY=0.5;entryDx=0;entryDy=0;fontStyle=1;fontSize=26;" parent="1" source="yI5xxinmUdv7EpqgZZJL-148" target="yI5xxinmUdv7EpqgZZJL-142" edge="1">
          <mxGeometry relative="1" as="geometry" />
        </mxCell>
        <mxCell id="yI5xxinmUdv7EpqgZZJL-148" value="Model Retraining" style="whiteSpace=wrap;html=1;fontSize=26;fontStyle=1" parent="1" vertex="1">
          <mxGeometry x="2913.75" y="700" width="300" height="60" as="geometry" />
        </mxCell>
        <mxCell id="yI5xxinmUdv7EpqgZZJL-159" style="edgeStyle=orthogonalEdgeStyle;rounded=0;orthogonalLoop=1;jettySize=auto;html=1;exitX=0;exitY=0.5;exitDx=0;exitDy=0;entryX=1;entryY=0.5;entryDx=0;entryDy=0;fontStyle=1;fontSize=26;" parent="1" source="yI5xxinmUdv7EpqgZZJL-150" target="yI5xxinmUdv7EpqgZZJL-142" edge="1">
          <mxGeometry relative="1" as="geometry" />
        </mxCell>
        <mxCell id="yI5xxinmUdv7EpqgZZJL-150" value="Incremental Learning" style="whiteSpace=wrap;html=1;fontSize=26;fontStyle=1" parent="1" vertex="1">
          <mxGeometry x="2913.75" y="790" width="300" height="60" as="geometry" />
        </mxCell>
        <mxCell id="yI5xxinmUdv7EpqgZZJL-160" style="edgeStyle=orthogonalEdgeStyle;rounded=0;orthogonalLoop=1;jettySize=auto;html=1;exitX=0;exitY=0.5;exitDx=0;exitDy=0;entryX=1;entryY=0.5;entryDx=0;entryDy=0;fontStyle=1;fontSize=26;" parent="1" source="yI5xxinmUdv7EpqgZZJL-154" target="yI5xxinmUdv7EpqgZZJL-142" edge="1">
          <mxGeometry relative="1" as="geometry" />
        </mxCell>
        <mxCell id="yI5xxinmUdv7EpqgZZJL-154" value="Ensemble Methods" style="whiteSpace=wrap;html=1;fontSize=26;fontStyle=1" parent="1" vertex="1">
          <mxGeometry x="2913.75" y="880" width="300" height="60" as="geometry" />
        </mxCell>
        <mxCell id="yI5xxinmUdv7EpqgZZJL-161" value="Automated Model Updating" style="text;html=1;align=center;verticalAlign=middle;resizable=0;points=[];autosize=1;strokeColor=none;fillColor=none;fontSize=26;fontStyle=1" parent="1" vertex="1">
          <mxGeometry x="2694" y="403" width="360" height="40" as="geometry" />
        </mxCell>
        <mxCell id="yI5xxinmUdv7EpqgZZJL-164" value="&lt;font style=&quot;font-size: 40px;&quot;&gt;Architecture of AutoML Pipeline for Static and Dynamic Data Analytics&amp;nbsp;&lt;/font&gt;" style="text;html=1;align=center;verticalAlign=middle;resizable=0;points=[];autosize=1;strokeColor=none;fillColor=none;fontStyle=1;fontSize=40;" parent="1" vertex="1">
          <mxGeometry x="556" y="-80" width="1370" height="60" as="geometry" />
        </mxCell>
      </root>
    </mxGraphModel>
  </diagram>
</mxfile>
